/vscmnt/brussel_pixiu_data/_data_brussel/112/vsc11236/PredSimResults/SUBJ11opt3D/trackIG/worker_12.mot
version=1
nRows=11
nColumns=50
inDegrees=yes
endheader
                time	         pelvis_tilt	         pelvis_list	     pelvis_rotation	           pelvis_tx	           pelvis_ty	           pelvis_tz	       hip_flexion_r	     hip_adduction_r	      hip_rotation_r	        knee_angle_r	       ankle_angle_r	         mtp_angle_r	       hip_flexion_l	     hip_adduction_l	      hip_rotation_l	        knee_angle_l	       ankle_angle_l	         mtp_angle_l	    lumbar_extension	      lumbar_bending	     lumbar_rotation	 ercspn_r/activation	 intobl_r/activation	 extobl_r/activation	    abd_r/activation	    add_r/activation	hamstrings_r/activation	bifemsh_r/activation	glut_max_r/activation	iliopsoas_r/activation	rect_fem_r/activation	  vasti_r/activation	gastroc_r/activation	 soleus_r/activation	tib_ant_r/activation	 ercspn_l/activation	 intobl_l/activation	 extobl_l/activation	    abd_l/activation	    add_l/activation	hamstrings_l/activation	bifemsh_l/activation	glut_max_l/activation	iliopsoas_l/activation	rect_fem_l/activation	  vasti_l/activation	gastroc_l/activation	 soleus_l/activation	tib_ant_l/activation	
          0.00000000	         -7.69108767	         -4.27052721	          8.88428698	          0.00000000	          0.92077982	         -0.00631548	         38.22829768	         -0.06987882	         -8.16785057	         -9.59250302	          4.54045181	          0.32824881	        -14.81791602	         -5.61829741	          2.06741534	        -11.52042701	          6.60435512	         40.00047357	        -11.62828627	          3.04831967	         -3.24710730	          0.08470194	          0.25702843	          0.01559439	          0.00999999	          0.34529897	          0.10844723	          0.27697773	          0.12360375	          0.14190129	          0.02273106	          0.00999999	          0.01609124	          0.00999999	          0.64564524	          0.02832995	          0.00999999	          0.00999999	          0.02530388	          0.12495255	          0.02222617	          0.31740656	          0.01885615	          0.44759465	          0.00999999	          0.01000001	          0.18669032	          0.27933791	          0.01383316	
          0.01030960	         -7.65746323	         -4.38682701	          9.01738565	          0.02199675	          0.91835274	         -0.00582373	         38.33900455	          0.10787761	         -8.31903783	        -11.81354058	          3.67044567	          0.30549910	        -15.41888826	         -5.93204291	          1.69496490	        -12.65402171	          5.11229427	         42.12370638	        -11.11006445	          3.38564393	         -3.49261841	          0.07228197	          0.24166276	          0.01330776	          0.01412122	          0.42189548	          0.09254546	          0.23636409	          0.32218005	          0.12109410	          0.01939797	          0.00999999	          0.01373176	          0.01171825	          0.74553791	          0.08647366	          0.00999999	          0.01171825	          0.02159353	          0.24275158	          0.01896712	          0.27219704	          0.01609124	          0.62253937	          0.00999999	          0.00999999	          0.15931566	          0.23837820	          0.01180478	
          0.02061919	         -7.60325426	         -4.47146112	          9.08728722	          0.04403285	          0.91613899	         -0.00528314	         38.32038943	          0.24856227	         -8.42765866	        -14.09278769	          3.10094493	          0.23009371	        -15.65988635	         -6.18700527	          1.29052156	        -14.47202527	          3.64238627	         44.02545735	        -10.61502768	          3.69473429	         -3.69891577	          0.08864890	          0.20622741	          0.01135643	          0.17851765	          0.47463141	          0.07897539	          0.20170569	          0.36674739	          0.10333791	          0.01655362	          0.00999999	          0.01171825	          0.00999999	          0.84919035	          0.11129358	          0.00999999	          0.00999999	          0.01842724	          0.20715658	          0.01618594	          0.23228440	          0.01373176	          0.76282572	          0.00999999	          0.00999999	          0.13595498	          0.20342447	          0.01007383	
          0.03092879	         -7.52925791	         -4.52686754	          9.09454304	          0.06576056	          0.91437656	         -0.00465796	         38.27741122	          0.38238487	         -8.54353419	        -16.32976673	          2.46451109	          0.18265748	        -15.40374141	         -6.39466091	          0.88578366	        -17.16684644	          2.24895858	         45.43779887	        -10.18713395	          3.97980287	         -3.85874940	          0.12708189	          0.17598799	          0.00999999	          0.21041469	          0.48965048	          0.06739511	          0.17212930	          0.39446335	          0.08818532	          0.01412634	          0.02710407	          0.00999999	          0.00999999	          0.91062106	          0.12868424	          0.00999999	          0.00999999	          0.01572523	          0.21597391	          0.01381257	          0.19822421	          0.01171825	          0.71928866	          0.00999999	          0.00999999	          0.11601971	          0.17359605	          0.00999999	
          0.04123838	         -7.43473893	         -4.57436651	          9.04637693	          0.08703901	          0.91316777	         -0.00396685	         38.28011385	          0.52571502	         -8.64292404	        -18.65433068	          1.96303520	          0.10843080	        -14.60938668	         -6.58947916	          0.50249426	        -20.78823995	          0.96742424	         46.03048899	         -9.83652658	          4.26963139	         -3.96727482	          0.11039187	          0.15018262	          0.00999999	          0.24423793	          0.46497486	          0.05751287	          0.14688974	          0.39543480	          0.07525458	          0.01205497	          0.14462029	          0.00999999	          0.00999999	          0.94702863	          0.22239263	          0.00999999	          0.00999999	          0.01341942	          0.23272493	          0.01178722	          0.16915832	          0.00999999	          0.61381835	          0.00999999	          0.00999999	          0.09900757	          0.14814142	          0.00999999	
          0.05154798	         -7.32480983	         -4.61827025	          8.94573496	          0.10782896	          0.91264651	         -0.00322936	         38.22799963	          0.70066891	         -8.69368604	        -20.92670855	          1.84239169	          0.02470193	        -13.30245466	         -6.78389315	          0.15130054	        -25.19785168	         -0.46172430	         45.87661849	         -9.55763511	          4.56692975	         -4.02463974	          0.09420495	          0.12816113	          0.00999999	          0.27570355	          0.40688227	          0.04907968	          0.12535109	          0.34980469	          0.06421990	          0.01028733	          0.24125756	          0.00999999	          0.00999999	          0.94811684	          0.22033069	          0.00999999	          0.00999999	          0.01145171	          0.23734006	          0.01005884	          0.15630902	          0.00999999	          0.52381330	          0.00999999	          0.00999999	          0.08448995	          0.12641923	          0.00999999	
          0.06185757	         -7.20816680	         -4.65732970	          8.79203399	          0.12805160	          0.91292783	         -0.00247710	         38.03553270	          0.92892443	         -8.64834895	        -22.99530784	          2.19333397	         -0.03722217	        -11.52375312	         -6.97862682	         -0.16282439	        -30.20811323	         -2.24299840	         44.94724247	         -9.35118204	          4.87192061	         -4.02758575	          0.08039155	          0.10936868	          0.00999999	          0.29441404	          0.35516604	          0.05249884	          0.10697068	          0.29851234	          0.05480324	          0.00999999	          0.33211259	          0.00999999	          0.00999999	          0.80909313	          0.20364294	          0.00999999	          0.00999999	          0.00999999	          0.26011966	          0.00999999	          0.15180026	          0.00999999	          0.44700581	          0.00999999	          0.00999999	          0.07210107	          0.10788220	          0.00999999	
          0.07216717	         -7.09388833	         -4.67603473	          8.58663711	          0.14763605	          0.91408340	         -0.00176564	         37.62044602	          1.20264076	         -8.50596628	        -24.68576122	          2.93967028	         -0.04566119	         -9.33366346	         -7.15059089	         -0.41230699	        -35.59083925	         -4.51480577	         43.18708863	         -9.21980892	          5.17202543	         -3.97785981	          0.06860362	          0.09333180	          0.00999999	          0.30129393	          0.30308754	          0.05075623	          0.09128542	          0.25474105	          0.04676737	          0.00999999	          0.43378401	          0.00999999	          0.00999999	          0.69045466	          0.21128513	          0.00999999	          0.04572333	          0.00999999	          0.27917273	          0.00999999	          0.12954157	          0.00999999	          0.38146072	          0.00999999	          0.00999999	          0.06152879	          0.09206328	          0.01178295	
          0.08247676	         -6.98907118	         -4.66764506	          8.33067732	          0.16650450	          0.91616789	         -0.00112853	         36.92502203	          1.51123958	         -8.28883189	        -25.86874226	          4.00052306	          0.08812945	         -6.81712100	         -7.27143219	         -0.53524114	        -41.12442069	         -6.98895222	         40.06423444	         -9.17024325	          5.45940671	         -3.88029639	          0.05854417	          0.07964643	          0.00999999	          0.27297027	          0.25864539	          0.04331377	          0.07790011	          0.21738801	          0.03990980	          0.00999999	          0.47985745	          0.00999999	          0.00999999	          0.58921232	          0.22372842	          0.07576879	          0.13331122	          0.00999999	          0.23823724	          0.00999999	          0.11054671	          0.00999999	          0.32552660	          0.09006147	          0.00999999	          0.05250674	          0.07856391	          0.22703813	
          0.09278636	         -6.89829025	         -4.64908097	          8.02833554	          0.18459254	          0.91908411	         -0.00057679	         35.96380181	          1.85574544	         -8.02122276	        -26.50332783	          5.11282508	          0.35006217	         -4.11503453	         -7.28867198	         -0.45406929	        -46.61579071	         -8.61284814	         35.27049484	         -9.20954911	          5.74449759	         -3.73702826	          0.04995976	          0.06796776	          0.00999999	          0.23294425	          0.22071985	          0.03696261	          0.06647751	          0.18551210	          0.03405777	          0.00999999	          0.48165695	          0.00999999	          0.00999999	          0.50281528	          0.19092280	          0.11275754	          0.18111447	          0.00999999	          0.21000869	          0.00999999	          0.15283489	          0.00999999	          0.27779417	          0.19929945	          0.00999999	          0.06355934	          0.06704397	          0.28070883	
          0.10309595	         -6.82332296	         -4.62141630	          7.68632708	          0.20193250	          0.92270254	         -0.00011826	         34.78992863	          2.21839842	         -7.71148568	        -26.64852310	          6.10159929	          0.67152246	         -1.36377118	         -7.15059169	         -0.21001003	        -51.80869177	         -8.58068489	         30.83390537	         -9.33848167	          6.02032372	         -3.55518668	          0.04263409	          0.05800155	          0.00999999	          0.19878731	          0.18835539	          0.05765755	          0.05672982	          0.15831020	          0.02906383	          0.00999999	          0.43934922	          0.00999999	          0.00999999	          0.42908677	          0.16292752	          0.13640722	          0.18930457	          0.00999999	          0.18683497	          0.00999999	          0.16892965	          0.00999999	          0.23706082	          0.29293509	          0.00999999	          0.05476544	          0.05721322	          0.32117025	
